<?xml version="1.0" standalone="no"?>
<!DOCTYPE svg PUBLIC "-//W3C//DTD SVG 20010904//EN"
 "http://www.w3.org/TR/2001/REC-SVG-20010904/DTD/svg10.dtd">
<svg version="1.0" xmlns="http://www.w3.org/2000/svg"
 width="1023.000000pt" height="468.000000pt" viewBox="0 0 1023.000000 468.000000"
 preserveAspectRatio="xMidYMid meet">
<metadata>
Created by potrace 1.16, written by Peter Selinger 2001-2019
</metadata>
<g transform="translate(0.000000,468.000000) scale(0.100000,-0.100000)"
fill="#000000" stroke="none">
<path d="M7926 3255 c-169 -74 -373 -223 -543 -398 -148 -152 -213 -237 -268
-352 -72 -148 -90 -215 -90 -330 0 -88 3 -107 27 -158 56 -120 173 -207 322
-242 80 -19 286 -21 348 -4 59 15 130 53 173 90 31 27 35 29 35 11 0 -72 191
-150 319 -130 159 25 243 134 228 296 -8 77 -34 136 -84 185 -59 59 -101 70
-255 65 -78 -2 -142 -9 -155 -16 -20 -11 -26 -8 -62 31 -84 91 -192 127 -376
127 -134 0 -207 -14 -298 -59 -55 -26 -57 -27 -51 -7 3 12 29 62 56 111 135
241 352 462 608 619 47 29 105 58 130 65 25 7 69 22 98 33 52 19 53 21 50 56
l-3 37 -65 3 c-56 2 -76 -3 -144 -33z m-205 -985 c89 -25 159 -109 159 -188 0
-61 -34 -101 -124 -147 l-79 -40 -136 0 c-126 0 -140 2 -191 26 -31 14 -73 41
-94 59 -42 38 -96 124 -96 156 0 35 133 112 238 139 64 17 261 14 323 -5z
m567 -124 c54 -28 74 -70 68 -140 -7 -68 -23 -98 -69 -127 -44 -28 -126 -20
-239 21 l-87 32 21 42 c15 29 22 61 22 108 l1 68 40 9 c62 15 204 8 243 -13z"/>
<path d="M4551 3141 c-8 -5 -10 -14 -7 -20 4 -6 1 -11 -8 -11 -17 0 -77 -59
-93 -92 -7 -13 -19 -48 -27 -79 l-16 -57 -84 -3 c-113 -5 -140 -24 -144 -99
-3 -43 1 -57 19 -76 33 -35 103 -53 166 -44 65 11 84 21 121 65 l29 36 106
-35 c286 -94 473 -335 453 -584 -6 -79 -21 -115 -72 -178 -41 -51 -88 -74
-151 -74 -62 0 -109 28 -130 78 -38 94 -44 102 -73 102 -48 0 -61 -23 -87
-145 -12 -60 -42 -71 -127 -45 -80 25 -101 50 -93 111 3 22 13 49 22 59 27 29
111 60 233 86 138 29 176 48 180 91 2 21 -3 37 -15 48 -59 53 -146 114 -193
134 -48 21 -64 23 -133 17 -95 -8 -157 -36 -211 -97 -36 -39 -38 -44 -34 -95
3 -31 12 -62 22 -73 16 -18 16 -19 -10 -25 -14 -4 -27 -6 -29 -4 -1 2 -13 28
-27 59 -38 85 -135 181 -226 227 l-76 37 -157 0 -156 0 -85 -43 c-198 -100
-288 -238 -253 -387 16 -69 44 -113 110 -174 74 -66 143 -92 251 -92 68 0 91
4 131 24 100 51 142 118 143 225 0 146 -81 211 -250 199 -141 -10 -240 -68
-240 -141 0 -71 70 -115 183 -116 114 0 174 41 165 115 -5 43 13 41 26 -3 15
-53 -2 -122 -39 -159 -31 -31 -37 -33 -102 -33 -76 0 -164 25 -215 61 -43 31
-72 100 -64 153 14 84 94 179 198 232 45 24 68 28 156 32 92 4 110 2 175 -22
84 -31 159 -84 201 -143 26 -38 30 -54 37 -144 8 -116 20 -139 66 -123 20 7
58 53 58 70 0 1 10 5 23 8 19 6 22 4 22 -21 0 -89 52 -157 147 -193 99 -37
189 -26 248 30 l30 29 61 -30 c127 -63 277 -28 393 91 68 70 84 118 89 258 4
108 1 132 -19 194 -24 76 -87 180 -163 268 -87 102 -211 170 -407 222 -86 23
-93 32 -61 81 42 63 100 85 140 54 6 -5 12 -7 12 -4 0 6 188 -66 223 -85 12
-7 24 -13 27 -13 35 -5 270 -161 295 -195 14 -19 25 -30 25 -26 0 5 9 -3 21
-18 25 -32 72 -58 92 -50 8 3 20 15 26 28 24 43 -24 115 -138 209 -32 26 -203
131 -216 133 -7 1 -30 14 -53 28 -23 14 -48 26 -56 26 -8 0 -17 4 -20 9 -4 7
-113 52 -136 57 -3 0 -12 3 -20 6 -47 18 -57 21 -75 25 -11 2 -27 6 -35 10 -8
3 -26 8 -40 10 -13 2 -29 8 -35 13 -6 5 -17 5 -24 1z m-21 -836 c14 -7 35 -24
48 -38 l24 -25 -74 -16 c-40 -9 -80 -19 -89 -22 -14 -4 -18 4 -21 38 -3 24 -8
51 -12 60 -13 29 68 31 124 3z"/>
<path d="M2188 2399 c-37 -13 -68 -33 -88 -55 -26 -30 -30 -42 -30 -95 0 -50
4 -64 24 -84 56 -56 184 -54 240 4 25 26 28 35 24 90 l-3 61 37 0 c28 0 42 -7
62 -31 14 -17 26 -37 26 -44 0 -22 -90 -93 -167 -132 -69 -34 -76 -35 -150
-31 -69 5 -88 11 -162 51 -46 25 -90 43 -98 40 -40 -16 29 -172 120 -270 135
-144 326 -182 539 -108 72 25 144 95 163 158 27 90 15 164 -35 217 -17 18 -30
33 -30 35 0 10 110 47 144 48 61 3 122 -42 161 -118 28 -55 30 -66 32 -183 1
-68 4 -135 8 -149 7 -30 41 -43 77 -31 39 14 52 68 45 193 -9 168 -75 304
-180 369 -38 23 -62 30 -120 34 -70 4 -108 -5 -227 -51 -10 -4 -24 7 -41 32
-40 58 -79 71 -206 70 -80 0 -122 -6 -165 -20z m412 -314 c7 -9 13 -31 12 -50
-2 -61 -41 -115 -109 -149 -45 -22 -174 -21 -251 2 -53 17 -152 74 -152 89 0
3 20 2 44 -1 88 -13 209 18 316 82 74 44 119 53 140 27z"/>
<path d="M6084 2352 c-85 -55 -139 -125 -158 -206 -13 -53 -8 -161 9 -204 20
-49 88 -113 160 -150 42 -21 67 -27 150 -30 119 -5 172 7 222 51 47 41 63 82
63 157 0 72 -25 128 -70 160 -29 20 -30 24 -15 40 8 9 39 30 68 46 43 24 64
29 124 29 63 0 76 -3 115 -30 65 -46 91 -102 96 -205 2 -47 -1 -104 -7 -126
-10 -39 -14 -42 -54 -48 -105 -16 -187 -84 -187 -155 0 -23 -5 -31 -17 -31
-15 0 -18 -8 -15 -55 4 -55 9 -61 49 -56 6 1 14 -7 18 -18 11 -35 123 -129
197 -165 115 -56 182 -69 328 -63 151 6 243 32 352 100 124 78 178 149 178
237 0 54 -28 82 -78 78 l-37 -3 -1 -58 c-1 -54 -3 -61 -43 -101 -55 -56 -149
-112 -234 -138 -58 -17 -87 -20 -180 -16 -127 5 -189 25 -291 93 -33 22 -68
44 -78 50 -18 10 -22 34 -20 120 0 22 5 41 11 43 6 2 11 10 11 17 0 15 35 23
115 27 l50 3 23 55 c20 49 22 69 20 181 -3 122 -4 127 -40 200 -70 142 -160
199 -292 184 -34 -3 -80 -15 -103 -25 l-43 -19 -66 35 c-62 32 -71 34 -168 34
-102 0 -103 0 -162 -38z m234 -98 l37 -15 -41 -37 c-23 -20 -60 -52 -83 -70
-33 -27 -41 -39 -41 -66 0 -25 6 -35 25 -44 39 -18 57 -15 107 17 l47 30 35
-40 c44 -48 48 -89 10 -124 -38 -35 -107 -47 -177 -31 -121 28 -197 91 -197
162 0 41 34 133 62 169 50 63 136 83 216 49z"/>
</g>
</svg>
